HIERARCHY
ROOT Hips
{
	OFFSET 0.00 0.00 0.00
	CHANNELS 6 Xposition Yposition Zposition Xrotation Yrotation Zrotation
	JOINT Spine
	{
		OFFSET 0.00000 1.70439 2.55658
		CHANNELS 3 Xrotation Yrotation Zrotation
		JOINT Spine1
		{
			OFFSET 0.00000 0.59193 3.35699
			CHANNELS 3 Xrotation Yrotation Zrotation
			JOINT Spine2
			{
				OFFSET 0.00000 0.29710 3.39581
				CHANNELS 3 Xrotation Yrotation Zrotation
				JOINT Spine3
				{
					OFFSET 0.00000 0.00000 3.40878
					CHANNELS 3 Xrotation Yrotation Zrotation
					JOINT Neck
					{
						OFFSET 0.00000 -1.27828 8.94804
						CHANNELS 3 Xrotation Yrotation Zrotation
						JOINT Head
						{
							OFFSET 0.00000 -0.81390 4.61586
							CHANNELS 3 Xrotation Yrotation Zrotation
							End Site
							{
								OFFSET 0.00000 0.00001 5.51796
							}
						}
					}
					JOINT RightShoulder
					{
						OFFSET -1.18875 -1.98124 6.41925
						CHANNELS 3 Xrotation Yrotation Zrotation
						JOINT RightArm
						{
							OFFSET -5.90412 0.00000 0.00000
							CHANNELS 3 Xrotation Yrotation Zrotation
							JOINT RightForeArm
							{
								OFFSET -11.94674 0.00000 0.00000
								CHANNELS 3 Xrotation Yrotation Zrotation
								JOINT RightHand
								{
									OFFSET -10.17720 0.00000 0.00000
									CHANNELS 3 Xrotation Yrotation Zrotation
									JOINT RightHandEnd
									{
										OFFSET -2.84518 0.00000 0.00000
										CHANNELS 3 Xrotation Yrotation Zrotation
										End Site
										{
											OFFSET -2.84518 0.00000 0.00000
										}
									}
									JOINT RightHandThumb1
									{
										OFFSET -1.13807 -1.89679 -0.75871
										CHANNELS 3 Yrotation Xrotation Zrotation
										End Site
										{
											OFFSET -2.74823 -0.73639 0.00000
										}
									}
								}
							}
						}
					}
					JOINT LeftShoulder
					{
						OFFSET 1.18875 -1.98124 6.41925
						CHANNELS 3 Xrotation Yrotation Zrotation
						JOINT LeftArm
						{
							OFFSET 5.90412 0.00000 0.00000
							CHANNELS 3 Xrotation Yrotation Zrotation
							JOINT LeftForeArm
							{
								OFFSET 11.94674 0.00000 0.00000
								CHANNELS 3 Xrotation Yrotation Zrotation
								JOINT LeftHand
								{
									OFFSET 10.17720 0.00000 0.00000
									CHANNELS 3 Xrotation Yrotation Zrotation
									JOINT LeftHandEnd
									{
										OFFSET 2.84518 0.00000 0.00000
										CHANNELS 3 Xrotation Yrotation Zrotation
										End Site
										{
											OFFSET 2.84518 0.00000 0.00000
										}
									}
									JOINT LeftHandThumb1
									{
										OFFSET 1.13807 -1.89679 -0.75871
										CHANNELS 3 Yrotation Xrotation Zrotation
										End Site
										{
											OFFSET 2.74823 -0.73639 0.00000
										}
									}
								}
							}
						}
					}
				}
			}
		}
	}
	JOINT RightUpLeg
	{
		OFFSET -3.52662 0.00000 -1.03025
		CHANNELS 3 Xrotation Yrotation Zrotation
		JOINT RightLeg
		{
			OFFSET 0.00001 0.00000 -17.80159
			CHANNELS 3 Xrotation Yrotation Zrotation
			JOINT RightFoot
			{
				OFFSET 0.00001 0.00000 -16.85992
				CHANNELS 3 Xrotation Yrotation Zrotation
				JOINT RightToeBase
				{
					OFFSET 0.00000 -5.42953 -1.97619
					CHANNELS 3 Xrotation Yrotation Zrotation
					End Site
					{
						OFFSET 0.00000 -2.85300 -0.00000
					}
				}
			}
		}
	}
	JOINT LeftUpLeg
	{
		OFFSET 3.52662 0.00000 -1.03025
		CHANNELS 3 Xrotation Yrotation Zrotation
		JOINT LeftLeg
		{
			OFFSET 0.00001 0.00000 -17.80159
			CHANNELS 3 Xrotation Yrotation Zrotation
			JOINT LeftFoot
			{
				OFFSET 0.00001 0.00000 -16.85992
				CHANNELS 3 Xrotation Yrotation Zrotation
				JOINT LeftToeBase
				{
					OFFSET 0.00000 -5.42953 -1.97619
					CHANNELS 3 Xrotation Yrotation Zrotation
					End Site
					{
						OFFSET 0.00000 -2.85300 -0.00000
					}
				}
			}
		}
	}
}
MOTION
Frames: 18
Frame Time: 0.008342
 1.9637 -4.8350 34.6445 3.0826 -0.2879 140.0436 7.1894 7.6670 -3.5355 2.8051 3.4205 -0.8496 3.6390 -6.5688 -21.7389 3.4376 -0.5210 -1.8213 13.2439 -7.5561 0.1302 5.0795 5.1161 27.0847 4.7295 -33.6929 -23.3024 -11.6104 -37.8683 2.4009 0.0000 0.0000 24.1241 -7.9317 34.9440 -18.0047 0.0000 0.0000 -0.0000 0.0000 -0.0000 -0.0000 12.6226 -1.7147 -29.7098 8.8826 26.9545 -18.2789 -0.0000 -0.0000 -31.4936 -7.0013 -15.7051 0.5531 -0.0000 0.0000 0.0000 0.0000 -0.0000 -0.0000 -28.7174 -0.2391 8.8684 54.5027 0.0000 0.0000 -24.2543 -9.1813 -0.5872 4.7716 0.0000 0.0000 -8.9940 -13.4888 29.8957 51.2757 0.0000 0.0000 -30.9197 3.2680 16.8661 -1.7338 0.0000 -0.0000
 2.0172 -4.8762 34.8153 2.9075 -0.0450 141.4932 7.0394 7.5974 -3.4678 2.7645 3.4020 -0.8371 3.5710 -6.5962 -21.5459 3.4078 -0.5426 -1.7676 13.1198 -7.6566 -0.0250 5.1139 5.0562 26.6017 4.7997 -33.5909 -22.9473 -11.4245 -37.4392 2.6115 0.0000 0.0000 24.1997 -7.8304 34.8390 -17.8721 0.0000 0.0000 0.0000 -0.0000 -0.0000 -0.0000 12.5316 -1.5483 -29.4668 8.7034 26.7376 -17.9404 -0.0000 -0.0000 -31.2664 -7.2450 -15.6088 0.5780 0.0000 -0.0000 0.0000 -0.0000 -0.0000 -0.0000 -28.2286 0.3284 7.9374 53.3295 0.0000 0.0000 -23.8990 -9.0606 -0.8922 4.7977 0.0000 0.0000 -9.1847 -13.1919 28.9836 50.0393 0.0000 0.0000 -30.0937 3.6756 16.4165 -1.8785 0.0000 -0.0000
 2.0724 -4.9163 34.9879 2.7234 0.1955 143.0041 6.8919 7.5240 -3.3993 2.7254 3.3823 -0.8244 3.4931 -6.6222 -21.3435 3.3735 -0.5658 -1.7130 13.0054 -7.7372 -0.1820 5.1462 4.9897 26.0947 4.8771 -33.4652 -22.5834 -11.2829 -36.9960 2.7626 0.0000 0.0000 24.2772 -7.7601 34.7501 -17.7593 -0.0000 -0.0000 0.0000 -0.0000 -0.0000 0.0000 12.4202 -1.3801 -29.2261 8.5144 26.5187 -17.6067 -0.0000 -0.0000 -31.0533 -7.5045 -15.5126 0.5883 -0.0000 0.0000 -0.0000 -0.0000 0.0000 -0.0000 -27.7092 0.9064 6.9460 52.1211 0.0000 0.0000 -23.5319 -8.9396 -1.1987 4.8253 0.0000 0.0000 -9.3598 -12.8929 28.0652 48.7566 0.0000 0.0000 -29.2309 4.1067 15.9302 -2.0239 0.0000 -0.0000
 2.1290 -4.9550 35.1618 2.5313 0.4317 144.5692 6.7460 7.4451 -3.3299 2.6870 3.3596 -0.8120 3.4075 -6.6435 -21.1277 3.3353 -0.5887 -1.6578 12.9017 -7.7992 -0.3412 5.1760 4.9157 25.5647 4.9609 -33.3146 -22.2122 -11.1888 -36.5419 2.8495 0.0000 0.0000 24.3598 -7.7252 34.6847 -17.6708 0.0000 0.0000 -0.0000 0.0000 -0.0000 -0.0000 12.2903 -1.2145 -28.9882 8.3139 26.2996 -17.2790 -0.0000 -0.0000 -30.8546 -7.7768 -15.4178 0.5845 0.0000 0.0000 -0.0000 -0.0000 0.0000 -0.0000 -27.1581 1.4902 5.8963 50.8798 0.0000 0.0000 -23.1535 -8.8179 -1.5045 4.8548 0.0000 0.0000 -9.5154 -12.5934 27.1480 47.4287 0.0000 0.0000 -28.3319 4.5610 15.4064 -2.1668 0.0000 -0.0000
 2.1868 -4.9917 35.3361 2.3317 0.6615 146.1815 6.6000 7.3581 -3.2591 2.6486 3.3332 -0.7993 3.3172 -6.6576 -20.8953 3.2937 -0.6089 -1.6027 12.8095 -7.8451 -0.5032 5.2022 4.8342 25.0133 5.0533 -33.1389 -21.8332 -11.1447 -36.0800 2.8719 0.0000 0.0000 24.4488 -7.7281 34.6452 -17.6069 -0.0000 0.0000 0.0000 0.0000 -0.0000 -0.0000 12.1427 -1.0546 -28.7537 8.1012 26.0813 -16.9576 -0.0000 -0.0000 -30.6711 -8.0547 -15.3263 0.5693 0.0000 0.0000 0.0000 -0.0000 0.0000 -0.0000 -26.5749 2.0741 4.7914 49.6080 0.0000 0.0000 -22.7645 -8.6949 -1.8078 4.8866 0.0000 0.0000 -9.6485 -12.2957 26.2394 46.0583 0.0000 0.0000 -27.3972 5.0371 14.8447 -2.3037 0.0000 -0.0000
 2.2455 -5.0260 35.5100 2.1252 0.8829 147.8336 6.4518 7.2610 -3.1866 2.6091 3.3022 -0.7864 3.2254 -6.6626 -20.6435 3.2498 -0.6244 -1.5480 12.7288 -7.8760 -0.6676 5.2247 4.7445 24.4407 5.1557 -32.9374 -21.4461 -11.1481 -35.6121 2.8330 0.0000 0.0000 24.5429 -7.7641 34.6297 -17.5668 0.0000 0.0000 -0.0000 -0.0000 -0.0000 0.0000 11.9776 -0.9026 -28.5216 7.8731 25.8665 -16.6416 -0.0000 -0.0000 -30.5026 -8.3295 -15.2398 0.5432 0.0000 -0.0000 -0.0000 0.0000 -0.0000 0.0000 -25.9597 2.6525 3.6347 48.3091 0.0000 0.0000 -22.3662 -8.5700 -2.1069 4.9212 0.0000 0.0000 -9.7573 -12.0020 25.3464 44.6492 0.0000 0.0000 -26.4279 5.5326 14.2455 -2.4315 0.0000 -0.0000
 2.3047 -5.0573 35.6826 1.9138 1.0950 149.5179 6.3000 7.1538 -3.1119 2.5675 3.2653 -0.7737 3.1356 -6.6561 -20.3701 3.2047 -0.6335 -1.4948 12.6598 -7.8932 -0.8335 5.2426 4.6459 23.8471 5.2713 -32.7102 -21.0497 -11.1941 -35.1391 2.7402 0.0000 0.0000 24.6384 -7.8283 34.6323 -17.5449 -0.0000 -0.0000 -0.0000 -0.0000 -0.0000 0.0000 11.7944 -0.7586 -28.2905 7.6275 25.6569 -16.3280 -0.0000 -0.0000 -30.3492 -8.5928 -15.1580 0.5072 0.0000 0.0000 0.0000 0.0000 -0.0000 0.0000 -25.3129 3.2215 2.4307 46.9872 0.0000 0.0000 -21.9608 -8.4431 -2.3998 4.9596 0.0000 0.0000 -9.8399 -11.7124 24.4760 43.2054 0.0000 0.0000 -25.4250 6.0437 13.6105 -2.5474 0.0000 -0.0000
 2.3644 -5.0855 35.8529 1.6971 1.2949 151.2280 6.1418 7.0331 -3.0354 2.5232 3.2243 -0.7604 3.0504 -6.6387 -20.0753 3.1600 -0.6356 -1.4428 12.6024 -7.8982 -1.0002 5.2559 4.5393 23.2321 5.4036 -32.4552 -20.6424 -11.2747 -34.6634 2.6036 0.0000 0.0000 24.7292 -7.9115 34.6437 -17.5339 -0.0000 -0.0000 -0.0000 0.0000 -0.0000 -0.0000 11.5960 -0.6243 -28.0570 7.3597 25.4541 -16.0171 -0.0000 -0.0000 -30.2089 -8.8380 -15.0833 0.4625 0.0000 -0.0000 0.0000 0.0000 -0.0000 -0.0000 -24.6365 3.7739 1.1831 45.6465 0.0000 0.0000 -21.5499 -8.3141 -2.6857 5.0021 0.0000 0.0000 -9.8977 -11.4312 23.6335 41.7343 0.0000 0.0000 -24.3909 6.5659 12.9410 -2.6487 0.0000 -0.0000
 2.4240 -5.1100 36.0200 1.4760 1.4825 152.9568 5.9754 6.8995 -2.9562 2.4755 3.1783 -0.7470 2.9722 -6.6091 -19.7589 3.1163 -0.6299 -1.3931 12.5568 -7.8910 -1.1654 5.2646 4.4240 22.5945 5.5581 -32.1729 -20.2209 -11.3831 -34.1844 2.4336 0.0000 0.0000 24.8094 -8.0016 34.6541 -17.5277 -0.0000 0.0000 0.0000 0.0000 -0.0000 -0.0000 11.3789 -0.4961 -27.8196 7.0666 25.2613 -15.7003 -0.0000 -0.0000 -30.0821 -9.0620 -15.0136 0.4071 0.0000 0.0000 0.0000 -0.0000 0.0000 -0.0000 -23.9336 4.3062 -0.1029 44.2932 0.0000 0.0000 -21.1361 -8.1840 -2.9628 5.0490 0.0000 0.0000 -9.9325 -11.1584 22.8237 40.2428 0.0000 0.0000 -23.3283 7.0931 12.2401 -2.7339 0.0000 -0.0000
 2.4834 -5.1307 36.1827 1.2510 1.6556 154.6982 5.8002 6.7514 -2.8755 2.4242 3.1292 -0.7331 2.9017 -6.5688 -19.4224 3.0750 -0.6172 -1.3452 12.5216 -7.8709 -1.3275 5.2705 4.3002 21.9324 5.7328 -31.8587 -19.7859 -11.5025 -33.7034 2.2421 0.0000 0.0000 24.8720 -8.0942 34.6545 -17.5132 0.0000 -0.0000 -0.0000 -0.0000 -0.0000 -0.0000 11.1441 -0.3733 -27.5749 6.7395 25.0831 -15.3728 -0.0000 -0.0000 -29.9667 -9.2583 -14.9456 0.3425 0.0000 -0.0000 0.0000 -0.0000 0.0000 0.0000 -23.2074 4.8127 -1.4227 42.9332 0.0000 0.0000 -20.7220 -8.0539 -3.2305 5.1007 0.0000 0.0000 -9.9467 -10.8965 22.0497 38.7396 0.0000 0.0000 -22.2416 7.6190 11.5108 -2.8015 0.0000 -0.0000
 2.5421 -5.1473 36.3401 1.0249 1.8116 156.4463 5.6184 6.5877 -2.7924 2.3695 3.0778 -0.7188 2.8388 -6.5181 -19.0691 3.0363 -0.5975 -1.2997 12.4977 -7.8385 -1.4845 5.2742 4.1694 21.2460 5.9428 -31.5121 -19.3295 -11.6364 -33.2251 2.0384 0.0000 0.0000 24.9106 -8.1682 34.6359 -17.4905 0.0000 -0.0000 0.0000 -0.0000 -0.0000 -0.0000 10.8957 -0.2537 -27.3160 6.3817 24.9146 -15.0382 -0.0000 -0.0000 -29.8572 -9.4432 -14.8835 0.2637 -0.0000 0.0000 -0.0000 0.0000 -0.0000 0.0000 -22.4595 5.2892 -2.7713 41.5737 0.0000 0.0000 -20.3108 -7.9254 -3.4878 5.1565 0.0000 0.0000 -9.9411 -10.6470 21.3132 37.2339 0.0000 0.0000 -21.1368 8.1371 10.7564 -2.8504 0.0000 -0.0000
 2.5999 -5.1602 36.4910 0.7934 1.9499 158.1956 5.4259 6.4067 -2.7073 2.3120 3.0250 -0.7042 2.7824 -6.4580 -18.7010 2.9999 -0.5718 -1.2567 12.4852 -7.7947 -1.6363 5.2759 4.0346 20.5358 6.1894 -31.1306 -18.8503 -11.7759 -32.7505 1.8295 0.0000 0.0000 24.9230 -8.2158 34.5918 -17.4571 0.0000 0.0000 -0.0000 -0.0000 0.0000 0.0000 10.6272 -0.1320 -27.0424 5.9954 24.7595 -14.6874 -0.0000 -0.0000 -29.7529 -9.6148 -14.8249 0.1759 -0.0000 0.0000 0.0000 -0.0000 -0.0000 0.0000 -21.7010 5.7304 -4.1434 40.2231 0.0000 0.0000 -19.9051 -7.8004 -3.7346 5.2160 0.0000 0.0000 -9.9266 -10.4125 20.6127 35.7382 0.0000 0.0000 -20.0217 8.6408 9.9816 -2.8802 0.0000 -0.0000
 2.6564 -5.1694 36.6346 0.5591 2.0679 159.9405 5.2264 6.2073 -2.6203 2.2522 2.9712 -0.6893 2.7307 -6.3894 -18.3207 2.9653 -0.5411 -1.2162 12.4831 -7.7364 -1.7807 5.2792 3.8937 19.8009 6.4739 -30.7113 -18.3469 -11.9144 -32.2818 1.6209 0.0000 0.0000 24.9089 -8.2312 34.5240 -17.4114 0.0000 -0.0000 -0.0000 0.0000 -0.0000 -0.0000 10.3376 -0.0043 -26.7508 5.5777 24.6197 -14.3156 -0.0000 -0.0000 -29.6484 -9.7851 -14.7648 0.0739 0.0000 -0.0000 -0.0000 0.0000 -0.0000 -0.0000 -20.9354 6.1327 -5.5333 38.8899 0.0000 0.0000 -19.5082 -7.6811 -3.9705 5.2781 0.0000 0.0000 -9.9051 -10.1944 19.9458 34.2626 0.0000 0.0000 -18.9051 9.1245 9.1914 -2.8910 0.0000 -0.0000
 2.7113 -5.1751 36.7699 0.3215 2.1632 161.6759 5.0213 5.9877 -2.5318 2.1909 2.9164 -0.6741 2.6813 -6.3127 -17.9301 2.9315 -0.5066 -1.1778 12.4910 -7.6634 -1.9178 5.2849 3.7488 19.0437 6.7984 -30.2511 -17.8178 -12.0498 -31.8229 1.4146 0.0000 0.0000 24.8708 -8.2074 34.4343 -17.3562 0.0000 0.0000 -0.0000 0.0000 -0.0000 0.0000 10.0261 0.1318 -26.4385 5.1345 24.4940 -13.9223 -0.0000 -0.0000 -29.5395 -9.9598 -14.7039 -0.0359 -0.0000 0.0000 0.0000 0.0000 0.0000 0.0000 -20.1701 6.4919 -6.9350 37.5827 0.0000 0.0000 -19.1235 -7.5689 -4.1961 5.3416 0.0000 0.0000 -9.8834 -9.9950 19.3072 32.8190 0.0000 0.0000 -17.7978 9.5835 8.3912 -2.8828 0.0000 -0.0000
 2.7643 -5.1778 36.8961 0.0823 2.2342 163.3964 4.8137 5.7475 -2.4417 2.1289 2.8603 -0.6588 2.6318 -6.2285 -17.5314 2.8973 -0.4691 -1.1413 12.5077 -7.5733 -2.0468 5.2952 3.5991 18.2666 7.1617 -29.7475 -17.2616 -12.1785 -31.3760 1.2112 0.0000 0.0000 24.8138 -8.1438 34.3309 -17.2939 0.0000 0.0000 -0.0000 -0.0000 0.0000 0.0000 9.6926 0.2799 -26.1028 4.6690 24.3806 -13.5066 -0.0000 -0.0000 -29.4189 -10.1497 -14.6394 -0.1565 -0.0000 0.0000 -0.0000 0.0000 -0.0000 0.0000 -19.4116 6.8063 -8.3420 36.3110 0.0000 0.0000 -18.7543 -7.4652 -4.4117 5.4049 0.0000 0.0000 -9.8653 -9.8144 18.6896 31.4178 0.0000 0.0000 -16.7108 10.0148 7.5879 -2.8562 0.0000 -0.0000
 2.8152 -5.1780 37.0127 -0.1593 2.2771 165.0975 4.6045 5.4833 -2.3508 2.0667 2.8020 -0.6436 2.5803 -6.1370 -17.1255 2.8620 -0.4283 -1.1059 12.5328 -7.4662 -2.1690 5.3109 3.4454 17.4741 7.5673 -29.1991 -16.6752 -12.3042 -30.9460 1.0083 0.0000 0.0000 24.7439 -8.0394 34.2219 -17.2254 -0.0000 -0.0000 -0.0000 0.0000 -0.0000 -0.0000 9.3426 0.4383 -25.7448 4.1853 24.2749 -13.0680 -0.0000 -0.0000 -29.2818 -10.3601 -14.5740 -0.2796 0.0000 0.0000 0.0000 -0.0000 0.0000 0.0000 -18.6678 7.0710 -9.7474 35.0827 0.0000 0.0000 -18.4036 -7.3698 -4.6200 5.4669 0.0000 0.0000 -9.8582 -9.6571 18.0841 30.0707 0.0000 0.0000 -15.6565 10.4171 6.7867 -2.8120 0.0000 -0.0000
 2.8636 -5.1763 37.1191 -0.4025 2.2919 166.7741 4.3955 5.1963 -2.2597 2.0051 2.7405 -0.6284 2.5251 -6.0391 -16.7124 2.8247 -0.3861 -1.0712 12.5636 -7.3391 -2.2847 5.3327 3.2878 16.6704 8.0031 -28.6040 -16.0622 -12.4169 -30.5312 0.8051 0.0000 0.0000 24.6699 -7.8961 34.1159 -17.1553 0.0000 0.0000 -0.0000 -0.0000 -0.0000 0.0000 8.9733 0.6090 -25.3613 3.6913 24.1778 -12.6098 -0.0000 -0.0000 -29.1223 -10.5862 -14.5097 -0.3955 -0.0000 -0.0000 -0.0000 0.0000 -0.0000 -0.0000 -17.9469 7.2865 -11.1437 33.9066 0.0000 0.0000 -18.0749 -7.2824 -4.8221 5.5263 0.0000 0.0000 -9.8671 -9.5224 17.4803 28.7866 0.0000 0.0000 -14.6462 10.7902 5.9961 -2.7514 0.0000 -0.0000
 2.9095 -5.1726 37.2152 -0.6365 2.2756 168.4212 4.1976 4.8865 -2.1682 1.9444 2.6739 -0.6139 2.4661 -5.9352 -16.2928 2.7841 -0.3410 -1.0375 12.5991 -7.1911 -2.3936 5.3616 3.1260 15.8611 8.4715 -27.9636 -15.4181 -12.5198 -30.1330 0.5996 0.0000 0.0000 24.5987 -7.7167 34.0224 -17.0808 -0.0000 -0.0000 0.0000 0.0000 -0.0000 0.0000 8.5887 0.7938 -24.9496 3.1985 24.0803 -12.1383 -0.0000 -0.0000 -28.9331 -10.8290 -14.4504 -0.4998 0.0000 -0.0000 0.0000 -0.0000 0.0000 0.0000 -17.2441 7.4531 -12.5244 32.7887 0.0000 0.0000 -17.7712 -7.2019 -5.0192 5.5823 0.0000 0.0000 -9.8840 -9.4104 16.8685 27.5707 0.0000 0.0000 -13.6898 11.1363 5.2223 -2.6761 0.0000 -0.0000
